<svg width="40" height="40" viewBox="0 0 40 40" fill="none" xmlns="http://www.w3.org/2000/svg">
<rect x="0.5" y="0.5" width="39" height="39" rx="19.5" fill="#4625EF"/>
<rect x="0.5" y="0.5" width="39" height="39" rx="19.5" stroke="#F9F9FB"/>
<path fill-rule="evenodd" clip-rule="evenodd" d="M23 15C23 16.6569 21.6569 18 20 18C18.3431 18 17 16.6569 17 15C17 13.3431 18.3431 12 20 12C21.6569 12 23 13.3431 23 15ZM24 15C24 17.2091 22.2091 19 20 19C17.7909 19 16 17.2091 16 15C16 12.7909 17.7909 11 20 11C22.2091 11 24 12.7909 24 15ZM12.5 26C12.5 22.9624 14.9624 20.5 18 20.5H22C25.0376 20.5 27.5 22.9624 27.5 26V27.5C27.5 27.7761 27.7239 28 28 28C28.2761 28 28.5 27.7761 28.5 27.5V26C28.5 22.4101 25.5899 19.5 22 19.5H18C14.4101 19.5 11.5 22.4101 11.5 26V27.5C11.5 27.7761 11.7239 28 12 28C12.2761 28 12.5 27.7761 12.5 27.5V26Z" fill="#F7F5FF"/>
<rect x="28.5" y="28.5" width="11" height="11" rx="5.5" fill="#25EF79" stroke="#F9F9FB"/>
</svg>
