<svg width="18" height="18" viewBox="0 0 18 18" fill="none" xmlns="http://www.w3.org/2000/svg">
<path d="M6.57502 6.49999C6.77094 5.94305 7.15765 5.47341 7.66665 5.17427C8.17565 4.87512 8.7741 4.76577 9.356 4.86558C9.9379 4.96539 10.4657 5.26793 10.8459 5.7196C11.2261 6.17127 11.4342 6.74293 11.4334 7.33332C11.4334 8.99999 8.93335 9.83332 8.93335 9.83332M9.00002 13.1667H9.00835M17.3334 8.99999C17.3334 13.6024 13.6024 17.3333 9.00002 17.3333C4.39765 17.3333 0.666687 13.6024 0.666687 8.99999C0.666687 4.39762 4.39765 0.666656 9.00002 0.666656C13.6024 0.666656 17.3334 4.39762 17.3334 8.99999Z" stroke="black" stroke-linecap="round" stroke-linejoin="round"/>
</svg>
